<svg xmlns="http://www.w3.org/2000/svg" viewBox="0 0 371 342.09"><defs><style>.a{fill:#f1efee;}.b{fill:#daa5ad;}.b,.e{stroke:#231f20;}.b,.c,.d,.e{stroke-width:0.25px;}.c{fill:#fff;}.c,.d{stroke:#000;}.d,.e,.f{fill:none;}.f{stroke:#424142;stroke-width:0.63px;}</style></defs><title>contactzones_</title><path class="a" d="M265.19,74.78c-.49,1.95-2.13,2.8-3.87,3.57l-1.42,1.08c-5.19,1.89-12.06,3.85-12.06,3.85s-4.57-.07-6.74,2.1-5.09,24.1-5.09,24.1l-1.2,5.54s-1.22,7.12-1.91,8.13.1,1.9-.49,2.89-6.86,11-7.06,12.11a2.45,2.45,0,0,0,.93,2l-5.09,13.48-2.84,4a1.24,1.24,0,0,0-1,.2c-.6.37-1.95,3.84-1.95,3.84a23.54,23.54,0,0,1-3.55,4.33c-1.45,1.1-2.25,1-2.25,1v.5s-9.88,5.06-11,5.69a1.13,1.13,0,0,0,.3,2.2c1.21.3,6.94-1.65,6.94-1.65s-1.16,1.95-.55,2.7-6.4,7.44-6.39,8.93,1.58,4.23,2.4,4.29,2.4-1.65,2.4-1.65,1.11,1,1.75.8,4.59-2.45,4.59-2.45-.5,3.62,3.09.25c.9-.84,4.27-4.88,4.59-5.19s1.4-5.39,1.4-5.39l3.94-5.34-.5-1.15,1.8-2.44s3.08-3.33,3-4.79,9.83-16.07,9.83-16.07l.45-.25,6.34-6.49c.56-.57,4.44-12.46,2.94-14.42-.35-.46,4.6-14.58,4.6-14.58s-.71,11.89-1.31,16.38-2.6,16-2.6,16-1.91,14.7-2.4,20.16-3.4,12.27-3.49,18.06,2.9,25.95,2.9,25.95l1,7-.9.6-.4,3.6-2.4,4.39c-1,1.85-.05,1.59-.1,3.1s-1.82,1.8-1.7,3.79-.7,9.78-.7,9.78l.3.8,1.1,18.48,2,20.07-1.7,4.89-.2,6.29-2.1,8,.4,9.18.8,1.5-1.8.5.4,10.28h4.29l.3,1.69,8.38-1,4.29-1.7-.1-10.18H253l-.2-3,2.79-.5-1-9.68-2.69.2-.5-10-.6-6.79,3.69-20.87,3.29-14.68s4.07-3.74,4.19-5.29.2-2.4.2-2.4l1.9-6s-.36-3.21-.6-5.39,2-6.08,1.5-8.58c-.27-1.43-.43-1.58-.51-1.45l5.1-20,2.69-13.37.84-1.3.55-.39.55.39.84,1.3,2.7,13.38,5.1,20c-.08-.13-.24,0-.51,1.45-.47,2.5,1.74,6.4,1.5,8.58l-.6,5.39,1.9,6s.07.84.2,2.4,4.19,5.29,4.19,5.29l3.29,14.68,3.69,20.87-.6,6.79-.5,10-2.69-.2-1,9.68,2.79.5-.2,3h-2.79l-.1,10.18,4.29,1.7,8.39,1,.3-1.69h4.29L309,309l-1.8-.5.8-1.5.4-9.18-2.1-8-.2-6.29-1.7-4.89,2-20.07,1.1-18.48.3-.8s-.82-7.8-.7-9.78-1.65-2.29-1.7-3.79.91-1.25-.1-3.1l-2.4-4.39-.4-3.6-.9-.6,1-7s3-20.16,2.9-25.95-3-12.6-3.49-18.06-2.4-20.16-2.4-20.16-2-11.48-2.59-16-1.5-15-1.5-15,5.15,12.71,4.8,13.18c-1.5,2,2.38,13.85,2.94,14.42l6.34,6.49.45.25s9.86,14.61,9.83,16.07,3,4.79,3,4.79l1.8,2.44-.5,1.15,3.94,5.34s1.07,5.08,1.4,5.39,3.7,4.35,4.59,5.19c3.59,3.38,3.09-.25,3.09-.25s4,2.26,4.59,2.45,1.75-.8,1.75-.8,1.58,1.72,2.4,1.65,2.38-2.79,2.4-4.29-6.89-8.32-6.39-8.93-.55-2.7-.55-2.7,5.72,1.95,6.94,1.65a1.13,1.13,0,0,0,.3-2.2c-1.15-.63-11-5.69-11-5.69v-.5s-.8.1-2.25-1a23.53,23.53,0,0,1-3.55-4.33s-1.35-3.47-1.95-3.84a1.24,1.24,0,0,0-1-.2l-2.84-4L321,140.17a2.45,2.45,0,0,0,.93-2c-.21-1.11-6.48-11.11-7.06-12.11s.2-1.89-.49-2.9-1.91-8.12-1.91-8.12l-1.2-5.54s-2.92-21.93-5.09-24.1-6.74-2.1-6.74-2.1-5.91-1.69-10.9-3.44c-1.48-1.14-3-2.22-4.51-3.35a3.2,3.2,0,0,1-.44-.4l-1.12-1.32c-.54-2.16-.08-3.31-.62-5.47a.88.88,0,0,1,.23-1c2-2.53,3.46-3.4,6-7.56.56-.92,2.08-2.87,2.57-3.84l1.25-1.45a3.43,3.43,0,0,0,.59-1.58c1-5.16,1.24-12.57-.25-17.6s-5-9.67-9.81-11.65a23,23,0,0,0-8.74-1.35H274a23,23,0,0,0-8.74,1.35c-4.86,2-8.32,6.61-9.81,11.65s-1.22,12.44-.25,17.6a3.43,3.43,0,0,0,.59,1.58l1.7,2.32c.36.67,1.73,2.32,2.12,3,2.5,4.16,3.94,5,6,7.56a.88.88,0,0,1,.23,1c-.54,2.16-.08,3.31-.62,5.47"/><path class="a" d="M111.73,55.49c.53-.23,1,.16,1.49-.46a3.43,3.43,0,0,0,.59-1.58c1-5.16,1.24-12.57-.25-17.6s-5-9.67-9.81-11.65A23,23,0,0,0,95,22.86h.41a23,23,0,0,0-8.74,1.35c-4.86,2-8.32,6.61-9.81,11.65s-1.22,12.44-.25,17.6A3.43,3.43,0,0,0,77.19,55c.5.61,1,.23,1.49.46s.53.53.76,1c.48,1,1,2.91,1.57,3.84,2,3.4,3.49,4.47,6,7.56a.88.88,0,0,1,.23,1c-.54,2.16-.08,3.31-.62,5.47-.49,1.95-2.13,2.8-3.87,3.57L81.29,79c-5.19,1.89-12.06,3.85-12.06,3.85s-4.57-.07-6.74,2.1S57.4,109,57.4,109l-1.2,5.54s-1.22,7.12-1.91,8.13.1,1.9-.49,2.89-6.86,11-7.06,12.11a2.45,2.45,0,0,0,.93,2l-5.09,13.48-2.84,4a1.24,1.24,0,0,0-1,.2c-.6.37-1.95,3.84-1.95,3.84a23.54,23.54,0,0,1-3.55,4.33c-1.45,1.1-2.25,1-2.25,1v.5s-9.88,5.06-11,5.69a1.13,1.13,0,0,0,.3,2.2c1.21.3,6.94-1.65,6.94-1.65s-1.16,1.95-.55,2.7-6.4,7.44-6.39,8.93,1.58,4.23,2.4,4.29,2.4-1.65,2.4-1.65,1.11,1,1.75.8S31.34,186,31.34,186s-.5,3.62,3.09.25c.9-.84,4.27-4.88,4.59-5.19s1.4-5.39,1.4-5.39l3.94-5.34-.5-1.15,1.8-2.44s3.08-3.33,3-4.79,9.83-16.07,9.83-16.07l.45-.25,6.34-6.49c.56-.57,4.44-12.46,2.94-14.42-.35-.46,4.6-14.58,4.6-14.58s-.71,11.89-1.31,16.38-2.6,16-2.6,16-1.91,14.7-2.4,20.16-3.4,13.27-3.49,19.06S66,206.65,66,206.65l1,7-.9.6-.4,3.6-2.4,4.39c-1,1.85-.05,1.59-.1,3.1s-1.82,1.8-1.7,3.79-.7,9.78-.7,9.78l.3.8,1.1,18.48,2,20.07-1.7,4.89-.2,6.29-2.1,8,.4,9.18.8,1.5-1.8.5.4,10.28h4.29l.3,1.69,8.38-1,4.29-1.7-.1-10.18h-2.8l-.2-3,2.79-.5-1-9.68-2.69.2-.5-10-.6-6.79,3.69-20.87,3.29-14.68s4.07-3.74,4.19-5.29.2-2.4.2-2.4l1.9-6s-.36-3.21-.6-5.39,1.65-6,1.5-8.58a2.67,2.67,0,0,0-.51-1.45l5.1-20,2.69-12.37.84-1.3.55-.39.55.39.84,1.3,2.7,12.38,5.1,20c-.08-.13-.24,0-.51,1.45-.47,2.5,1.74,6.4,1.5,8.58l-.6,5.39,1.9,6s.07.84.2,2.4,4.19,5.29,4.19,5.29l3.29,14.68,3.69,20.87-.6,6.79-.5,10-2.69-.2-1,9.68,2.79.5-.2,3h-2.79l-.1,10.18,4.29,1.7,8.39,1,.3-1.69H130l.4-10.28-1.8-.5.8-1.5.4-9.18-2.1-8-.2-6.29-1.7-4.89,2-20.07,1.1-18.48.3-.8s-.82-7.79-.7-9.78-1.65-2.29-1.7-3.79.91-1.25-.1-3.1l-2.4-4.39-.4-3.6-.9-.6,1-7s3-19.16,2.9-24.95-3-13.6-3.49-19.06-2.4-20.16-2.4-20.16-2-11.48-2.59-16-1.5-15-1.5-15,5.15,12.71,4.8,13.18c-1.5,2,2.38,13.85,2.94,14.42l6.34,6.49.45.25s9.86,14.61,9.83,16.07,3,4.79,3,4.79l1.8,2.44-.5,1.15,3.94,5.34s1.07,5.08,1.4,5.39,3.7,4.35,4.59,5.19c3.59,3.38,3.09-.25,3.09-.25s4,2.26,4.59,2.45,1.75-.8,1.75-.8,1.58,1.72,2.4,1.65,2.38-2.79,2.4-4.29-6.89-8.32-6.39-8.93-.55-2.7-.55-2.7,5.72,1.95,6.94,1.65a1.13,1.13,0,0,0,.3-2.2c-1.15-.63-11-5.69-11-5.69v-.5s-.8.1-2.25-1a23.53,23.53,0,0,1-3.55-4.33s-1.35-3.47-1.95-3.84a1.24,1.24,0,0,0-1-.2l-2.84-4-5.09-13.48a2.45,2.45,0,0,0,.93-2c-.21-1.11-6.48-11.11-7.06-12.11s.2-1.89-.49-2.89-1.91-8.12-1.91-8.12l-1.2-5.54s-2.92-21.93-5.09-24.1-6.74-2.1-6.74-2.1-5.91-1.69-10.9-3.44c-1.48-1.14-3-2.22-4.51-3.35a3.2,3.2,0,0,1-.44-.4l-1.12-1.32c-.54-2.16-.08-3.31-.62-5.47a.88.88,0,0,1,.23-1c2.47-3.09,3.92-4.15,6-7.56.56-.92,1.08-2.87,1.57-3.84.23-.47.3-.8.76-1"/><path class="b" d="M86.13,75.71c-.8,1.09-3.43,2.2-3.43,2.2L81.29,79c-5.19,1.89-12.06,3.85-12.06,3.85s-4.57-.07-6.74,2.1S57.4,109,57.4,109l-1.2,5.54s-1.22,7.12-1.91,8.13.1,1.9-.49,2.89l-2.11,4,13.52,9.52.12,0c.56-.57,4.44-12.46,2.94-14.42-.35-.46,4.6-14.58,4.6-14.58s-.71,11.89-1.31,16.38-2.6,16-2.6,16-1.91,14.7-2.4,20.16-3.4,13.27-3.49,19.06S66,205.65,66,205.65l.26,1.91,20.66,1.52,4-15.79,2.69-12.37.84-1.3.55-.39.55.39.84,1.3,2.7,12.38,4.21,15.79L124,207.55v-1.89s3-18.16,2.9-23.95-3-13.6-3.49-19.06-2.4-20.16-2.4-20.16-2-11.48-2.59-16-1.5-15-1.5-15,5.15,12.71,4.8,13.18c-1.5,2,2.38,13.85,2.94,14.42l.37,0,13.52-9.52-2.37-4c-.59-1,.2-1.89-.49-2.89s-1.91-8.12-1.91-8.12l-1.2-5.54s-2.92-21.93-5.09-24.1-6.74-2.1-6.74-2.1-5.91-1.69-10.9-3.44c0,0-2.75-2.23-4.87-3.69l-.07.14c-.79-.54-.78.71-.78.71-2.58,6.16-4.38,9.17-9.53,9.17s-8.12-4-8.12-9.17l-.2-.58Z"/><path class="b" d="M306.69,130.07c2.06-1.42,4-1.16,6.49,2.41l.16.26,3.9-2.76s-2.07-3.36-2.41-3.93c-.59-1,.2-1.89-.49-2.9s-1.91-8.12-1.91-8.12l-1.2-5.54s-2.92-21.93-5.09-24.1-6.74-2.1-6.74-2.1-5.91-1.69-10.9-3.44c0,0-2.75-2.23-4.87-3.69h-.49s-3.44,1.43-10.53,1.43c-5.39,0-7.28-.32-7.88-1.43-.8,1.09-3.43,2.2-3.43,2.2l-1.41,1.08c-5.19,1.89-12.06,3.85-12.06,3.85s-4.57-.07-6.74,2.1-5.09,24.1-5.09,24.1l-1.2,5.54s-1.22,7.12-1.91,8.13.1,1.9-.49,2.9S230,130,230,130l3.51,2.33c.21-.36.43-.72.69-1.1,2.46-3.56,4.43-3.83,6.49-2.41s3.44,3,1,6.57a13.29,13.29,0,0,1-1.4,1.7l3.54,2.49.12,0c.56-.57,4.44-12.46,2.94-14.42-.35-.46,4.6-14.58,4.6-14.58s-.71,11.89-1.31,16.38-2.6,16-2.6,16-1.91,14.7-2.4,20.16-3.4,12.27-3.49,18.06,2.9,25.95,2.9,25.95l.13.91,20.66,1.52,4.17-15.79,2.69-13.37.84-1.3.55-.39.55.39.84,1.3,2.7,13.38,4.08,15.79L302.53,208l.13-.89s3-20.16,2.9-25.95-3-12.6-3.49-18.06-2.4-20.16-2.4-20.16-2-11.48-2.59-16-1.5-15-1.5-15,5.15,12.71,4.8,13.18c-1.5,2,2.94,14.42,2.94,14.42l3.14-2c-.25-.3-.5-.62-.73-1C303.25,133.07,304.63,131.49,306.69,130.07Z"/><line class="c" x1="47.67" y1="139.74" x2="58.54" y2="145.87"/><line class="c" x1="123.76" y1="206.62" x2="123.58" y2="206.63"/><line class="c" x1="79.15" y1="242.39" x2="61.29" y2="241.79"/><line class="c" x1="85.82" y1="213.29" x2="66.97" y2="213.64"/><line class="c" x1="27.15" y1="173.37" x2="30.94" y2="167.13"/><line class="c" x1="26.6" y1="176.06" x2="39.03" y2="181.06"/><line class="c" x1="68.27" y1="124.71" x2="54.29" y2="122.71"/><path class="d" d="M79,234.83a4.85,4.85,0,0,1-5.35,4.31l-3.2-.35a4.86,4.86,0,0,1-4.27-5.38l.11-10.7a4.85,4.85,0,0,1,5.35-4.31L77,219a4.85,4.85,0,0,1,4.27,5.38Z"/><line class="c" x1="64.18" y1="278.24" x2="72.17" y2="278.24"/><line class="c" x1="142.35" y1="139.74" x2="131.48" y2="145.87"/><line class="c" x1="110.87" y1="242.39" x2="128.73" y2="241.79"/><line class="c" x1="104.2" y1="213.29" x2="123.05" y2="213.64"/><line class="c" x1="162.87" y1="173.37" x2="159.08" y2="167.13"/><line class="c" x1="163.42" y1="176.06" x2="150.99" y2="181.06"/><line class="c" x1="121.75" y1="124.71" x2="135.72" y2="122.71"/><path class="d" d="M111,234.83a4.85,4.85,0,0,0,5.35,4.31l3.2-.35a4.86,4.86,0,0,0,4.27-5.38l-.11-10.7a4.85,4.85,0,0,0-5.35-4.31L113,219a4.85,4.85,0,0,0-4.27,5.38Z"/><line class="c" x1="125.84" y1="278.24" x2="117.85" y2="278.24"/><path class="d" d="M111.3,55.89c1.56-5.08.84-4.83-.58-9.93a33.2,33.2,0,0,0-.79-4.44c-.46-1.77-.14-3.48-1.12-3.87-3.74-1.52-7.57.23-10.58.21h-6c-3,0-6.84-1.73-10.58-.21-1,.4-.66,2.11-1.12,3.87A33.2,33.2,0,0,0,79.7,46c-1.42,5.1-2.14,4.86-.58,9.93"/><path class="e" d="M240.72,128.79c2.06,1.43,3.44,3,1,6.57s-6.13,5.3-8.2,3.87-1.73-4.47.73-8S238.65,127.36,240.72,128.79Z"/><path class="e" d="M306.69,130.07c-2.06,1.43-3.44,3-1,6.57s6.13,5.3,8.2,3.87,1.73-4.47-.73-8S308.75,128.64,306.69,130.07Z"/><path class="d" d="M290.85,185.12A17,17,0,0,1,274,178.59h-.68a17,17,0,0,1-16.89,6.53"/><line class="c" x1="226.28" y1="140.17" x2="237.15" y2="146.31"/><line class="c" x1="302.38" y1="207.05" x2="302.2" y2="207.07"/><line class="c" x1="257.77" y1="242.83" x2="239.91" y2="242.23"/><line class="c" x1="264.44" y1="213.72" x2="245.59" y2="214.08"/><line class="c" x1="205.76" y1="173.8" x2="209.55" y2="167.57"/><line class="c" x1="205.21" y1="176.5" x2="217.64" y2="181.49"/><line class="c" x1="246.89" y1="125.15" x2="232.91" y2="123.15"/><line class="c" x1="242.8" y1="278.68" x2="250.78" y2="278.68"/><line class="c" x1="320.97" y1="140.17" x2="310.1" y2="146.31"/><line class="c" x1="289.48" y1="242.83" x2="307.34" y2="242.23"/><line class="c" x1="282.81" y1="213.72" x2="301.66" y2="214.08"/><line class="c" x1="341.49" y1="173.8" x2="337.7" y2="167.57"/><line class="c" x1="342.04" y1="176.5" x2="329.61" y2="181.49"/><line class="c" x1="300.36" y1="125.15" x2="314.34" y2="123.15"/><line class="c" x1="304.45" y1="278.68" x2="296.47" y2="278.68"/><line class="c" x1="150.37" y1="157.25" x2="141.31" y2="161.94"/><line class="c" x1="39.65" y1="157.25" x2="48.71" y2="161.94"/><line class="c" x1="218.26" y1="157.69" x2="227.32" y2="162.38"/><line class="c" x1="328.99" y1="157.69" x2="319.93" y2="162.38"/><path class="d" d="M290.58,56.92a14.82,14.82,0,0,1-4.17,2.38c-3.74,1.52-6.57-.23-9.58-.21h-7.44c-3,0-4.84,1.73-8.58.21a17.05,17.05,0,0,1-3.31-1.51"/><path class="f" d="M265.19,74.78c-.49,1.95-2.13,2.8-3.87,3.57l-1.42,1.08c-5.19,1.89-12.06,3.85-12.06,3.85s-4.57-.07-6.74,2.1-5.09,24.1-5.09,24.1l-1.2,5.54s-1.22,7.12-1.91,8.13.1,1.9-.49,2.89-6.86,11-7.06,12.11a2.45,2.45,0,0,0,.93,2l-5.09,13.48-2.84,4a1.24,1.24,0,0,0-1,.2c-.6.37-1.95,3.84-1.95,3.84a23.54,23.54,0,0,1-3.55,4.33c-1.45,1.1-2.25,1-2.25,1v.5s-9.88,5.06-11,5.69a1.13,1.13,0,0,0,.3,2.2c1.21.3,6.94-1.65,6.94-1.65s-1.16,1.95-.55,2.7-6.4,7.44-6.39,8.93,1.58,4.23,2.4,4.29,2.4-1.65,2.4-1.65,1.11,1,1.75.8,4.59-2.45,4.59-2.45-.5,3.62,3.09.25c.9-.84,4.27-4.88,4.59-5.19s1.4-5.39,1.4-5.39l3.94-5.34-.5-1.15,1.8-2.44s3.08-3.33,3-4.79,9.83-16.07,9.83-16.07l.45-.25,6.34-6.49c.56-.57,4.44-12.46,2.94-14.42-.35-.46,4.6-14.58,4.6-14.58s-.71,11.89-1.31,16.38-2.6,16-2.6,16-1.91,14.7-2.4,20.16-3.4,12.27-3.49,18.06,2.9,25.95,2.9,25.95l1,7-.9.6-.4,3.6-2.4,4.39c-1,1.85-.05,1.59-.1,3.1s-1.82,1.8-1.7,3.79-.7,9.78-.7,9.78l.3.8,1.1,18.48,2,20.07-1.7,4.89-.2,6.29-2.1,8,.4,9.18.8,1.5-1.8.5.4,10.28h4.29l.3,1.69,8.38-1,4.29-1.7-.1-10.18H253l-.2-3,2.79-.5-1-9.68-2.69.2-.5-10-.6-6.79,3.69-20.87,3.29-14.68s4.07-3.74,4.19-5.29.2-2.4.2-2.4l1.9-6s-.36-3.21-.6-5.39,2-6.08,1.5-8.58c-.27-1.43-.43-1.58-.51-1.45l5.1-20,2.69-13.37.84-1.3.55-.39.55.39.84,1.3,2.7,13.38,5.1,20c-.08-.13-.24,0-.51,1.45-.47,2.5,1.74,6.4,1.5,8.58l-.6,5.39,1.9,6s.07.84.2,2.4,4.19,5.29,4.19,5.29l3.29,14.68,3.69,20.87-.6,6.79-.5,10-2.69-.2-1,9.68,2.79.5-.2,3h-2.79l-.1,10.18,4.29,1.7,8.39,1,.3-1.69h4.29L309,309l-1.8-.5.8-1.5.4-9.18-2.1-8-.2-6.29-1.7-4.89,2-20.07,1.1-18.48.3-.8s-.82-7.8-.7-9.78-1.65-2.29-1.7-3.79.91-1.25-.1-3.1l-2.4-4.39-.4-3.6-.9-.6,1-7s3-20.16,2.9-25.95-3-12.6-3.49-18.06-2.4-20.16-2.4-20.16-2-11.48-2.59-16-1.5-15-1.5-15,5.15,12.71,4.8,13.18c-1.5,2,2.38,13.85,2.94,14.42l6.34,6.49.45.25s9.86,14.61,9.83,16.07,3,4.79,3,4.79l1.8,2.44-.5,1.15,3.94,5.34s1.07,5.08,1.4,5.39,3.7,4.35,4.59,5.19c3.59,3.38,3.09-.25,3.09-.25s4,2.26,4.59,2.45,1.75-.8,1.75-.8,1.58,1.72,2.4,1.65,2.38-2.79,2.4-4.29-6.89-8.32-6.39-8.93-.55-2.7-.55-2.7,5.72,1.95,6.94,1.65a1.13,1.13,0,0,0,.3-2.2c-1.15-.63-11-5.69-11-5.69v-.5s-.8.1-2.25-1a23.53,23.53,0,0,1-3.55-4.33s-1.35-3.47-1.95-3.84a1.24,1.24,0,0,0-1-.2l-2.84-4L321,140.17a2.45,2.45,0,0,0,.93-2c-.21-1.11-6.48-11.11-7.06-12.11s.2-1.89-.49-2.9-1.91-8.12-1.91-8.12l-1.2-5.54s-2.92-21.93-5.09-24.1-6.74-2.1-6.74-2.1-5.91-1.69-10.9-3.44c-1.48-1.14-3-2.22-4.51-3.35a3.2,3.2,0,0,1-.44-.4l-1.12-1.32c-.54-2.16-.08-3.31-.62-5.47a.88.88,0,0,1,.23-1c2-2.53,3.46-3.4,6-7.56.56-.92,2.08-2.87,2.57-3.84l1.25-1.45a3.43,3.43,0,0,0,.59-1.58c1-5.16,1.24-12.57-.25-17.6s-5-9.67-9.81-11.65a23,23,0,0,0-8.74-1.35H274a23,23,0,0,0-8.74,1.35c-4.86,2-8.32,6.61-9.81,11.65s-1.22,12.44-.25,17.6a3.43,3.43,0,0,0,.59,1.58l1.7,2.32c.36.67,1.73,2.32,2.12,3,2.5,4.16,3.94,5,6,7.56a.88.88,0,0,1,.23,1c-.54,2.16-.08,3.31-.62,5.47"/><path class="f" d="M111.73,55.49c.53-.23,1,.16,1.49-.46a3.43,3.43,0,0,0,.59-1.58c1-5.16,1.24-12.57-.25-17.6s-5-9.67-9.81-11.65A23,23,0,0,0,95,22.86h.41a23,23,0,0,0-8.74,1.35c-4.86,2-8.32,6.61-9.81,11.65s-1.22,12.44-.25,17.6A3.43,3.43,0,0,0,77.19,55c.5.61,1,.23,1.49.46s.53.53.76,1c.48,1,1,2.91,1.57,3.84,2,3.4,3.49,4.47,6,7.56a.88.88,0,0,1,.23,1c-.54,2.16-.08,3.31-.62,5.47-.49,1.95-2.13,2.8-3.87,3.57L81.29,79c-5.19,1.89-12.06,3.85-12.06,3.85s-4.57-.07-6.74,2.1S57.4,109,57.4,109l-1.2,5.54s-1.22,7.12-1.91,8.13.1,1.9-.49,2.89-6.86,11-7.06,12.11a2.45,2.45,0,0,0,.93,2l-5.09,13.48-2.84,4a1.24,1.24,0,0,0-1,.2c-.6.37-1.95,3.84-1.95,3.84a23.54,23.54,0,0,1-3.55,4.33c-1.45,1.1-2.25,1-2.25,1v.5s-9.88,5.06-11,5.69a1.13,1.13,0,0,0,.3,2.2c1.21.3,6.94-1.65,6.94-1.65s-1.16,1.95-.55,2.7-6.4,7.44-6.39,8.93,1.58,4.23,2.4,4.29,2.4-1.65,2.4-1.65,1.11,1,1.75.8S31.34,186,31.34,186s-.5,3.62,3.09.25c.9-.84,4.27-4.88,4.59-5.19s1.4-5.39,1.4-5.39l3.94-5.34-.5-1.15,1.8-2.44s3.08-3.33,3-4.79,9.83-16.07,9.83-16.07l.45-.25,6.34-6.49c.56-.57,4.44-12.46,2.94-14.42-.35-.46,4.6-14.58,4.6-14.58s-.71,11.89-1.31,16.38-2.6,16-2.6,16-1.91,14.7-2.4,20.16-3.4,13.27-3.49,19.06S66,206.65,66,206.65l1,7-.9.6-.4,3.6-2.4,4.39c-1,1.85-.05,1.59-.1,3.1s-1.82,1.8-1.7,3.79-.7,9.78-.7,9.78l.3.8,1.1,18.48,2,20.07-1.7,4.89-.2,6.29-2.1,8,.4,9.18.8,1.5-1.8.5.4,10.28h4.29l.3,1.69,8.38-1,4.29-1.7-.1-10.18h-2.8l-.2-3,2.79-.5-1-9.68-2.69.2-.5-10-.6-6.79,3.69-20.87,3.29-14.68s4.07-3.74,4.19-5.29.2-2.4.2-2.4l1.9-6s-.36-3.21-.6-5.39,1.65-6,1.5-8.58a2.67,2.67,0,0,0-.51-1.45l5.1-20,2.69-12.37.84-1.3.55-.39.55.39.84,1.3,2.7,12.38,5.1,20c-.08-.13-.24,0-.51,1.45-.47,2.5,1.74,6.4,1.5,8.58l-.6,5.39,1.9,6s.07.84.2,2.4,4.19,5.29,4.19,5.29l3.29,14.68,3.69,20.87-.6,6.79-.5,10-2.69-.2-1,9.68,2.79.5-.2,3h-2.79l-.1,10.18,4.29,1.7,8.39,1,.3-1.69H130l.4-10.28-1.8-.5.8-1.5.4-9.18-2.1-8-.2-6.29-1.7-4.89,2-20.07,1.1-18.48.3-.8s-.82-7.79-.7-9.78-1.65-2.29-1.7-3.79.91-1.25-.1-3.1l-2.4-4.39-.4-3.6-.9-.6,1-7s3-19.16,2.9-24.95-3-13.6-3.49-19.06-2.4-20.16-2.4-20.16-2-11.48-2.59-16-1.5-15-1.5-15,5.15,12.71,4.8,13.18c-1.5,2,2.38,13.85,2.94,14.42l6.34,6.49.45.25s9.86,14.61,9.83,16.07,3,4.79,3,4.79l1.8,2.44-.5,1.15,3.94,5.34s1.07,5.08,1.4,5.39,3.7,4.35,4.59,5.19c3.59,3.38,3.09-.25,3.09-.25s4,2.26,4.59,2.45,1.75-.8,1.75-.8,1.58,1.72,2.4,1.65,2.38-2.79,2.4-4.29-6.89-8.32-6.39-8.93-.55-2.7-.55-2.7,5.72,1.95,6.94,1.65a1.13,1.13,0,0,0,.3-2.2c-1.15-.63-11-5.69-11-5.69v-.5s-.8.1-2.25-1a23.53,23.53,0,0,1-3.55-4.33s-1.35-3.47-1.95-3.84a1.24,1.24,0,0,0-1-.2l-2.84-4-5.09-13.48a2.45,2.45,0,0,0,.93-2c-.21-1.11-6.48-11.11-7.06-12.11s.2-1.89-.49-2.89-1.91-8.12-1.91-8.12l-1.2-5.54s-2.92-21.93-5.09-24.1-6.74-2.1-6.74-2.1-5.91-1.69-10.9-3.44c-1.48-1.14-3-2.22-4.51-3.35a3.2,3.2,0,0,1-.44-.4l-1.12-1.32c-.54-2.16-.08-3.31-.62-5.47a.88.88,0,0,1,.23-1c2.47-3.09,3.92-4.15,6-7.56.56-.92,1.08-2.87,1.57-3.84.23-.47.3-.8.76-1"/></svg>