<svg xmlns="http://www.w3.org/2000/svg" viewBox="0 0 371 342.09"><defs><style>.a{fill:#f1efee;}.b{fill:#daa5ad;stroke:#231f20;}.b,.c,.d{stroke-width:0.25px;}.c,.e{fill:none;}.c,.d{stroke:#000;}.d{fill:#fff;}.e{stroke:#424142;stroke-width:0.63px;}</style></defs><title>contactzones_</title><path class="a" d="M264.88,74.15c-.49,1.95-2.13,2.8-3.87,3.57l-1.42,1.08c-5.19,1.89-12.06,3.85-12.06,3.85s-4.57-.07-6.74,2.1-5.09,24.1-5.09,24.1l-1.2,5.54s-1.22,7.12-1.91,8.13.1,1.9-.49,2.9-6.86,11-7.06,12.11a2.45,2.45,0,0,0,.93,2L220.88,153l-2.84,4a1.24,1.24,0,0,0-1,.2c-.6.37-1.95,3.84-1.95,3.84a23.54,23.54,0,0,1-3.55,4.33c-1.45,1.1-2.25,1-2.25,1v.5s-9.88,5.06-11,5.69a1.13,1.13,0,0,0,.3,2.2c1.21.3,6.94-1.65,6.94-1.65s-1.16,1.95-.55,2.7-6.4,7.44-6.39,8.93,1.58,4.23,2.4,4.29,2.4-1.65,2.4-1.65,1.11,1,1.75.8,4.59-2.45,4.59-2.45-.5,3.62,3.09.25c.9-.84,4.27-4.88,4.59-5.19s1.4-5.39,1.4-5.39l3.94-5.34-.5-1.15,1.8-2.44s3.08-3.33,3-4.79,9.83-16.07,9.83-16.07l.45-.25,6.34-6.49c.56-.57,4.44-12.46,2.94-14.42-.35-.46,4.6-14.58,4.6-14.58s-.71,11.89-1.31,16.38-2.6,16-2.6,16-1.91,14.7-2.4,20.16-3.4,13.27-3.49,19.06,2.9,28.95,2.9,28.95l1,4-.9.6-.4,3.6-2.4,4.39c-1,1.85-.05,1.59-.1,3.1s-1.82,1.8-1.7,3.79-.7,9.78-.7,9.78l.3.8L240.5,258l2,20.07-1.7,4.89-.2,6.29-2.1,8,.4,9.18.8,1.5-1.8.5.4,10.28h4.29l.3,1.69,8.38-1,4.29-1.7-.1-10.18h-2.8l-.2-3,2.79-.5-1-9.68-2.69.2-.5-10-.6-6.79,3.69-20.87,3.29-13.68s4.07-3.74,4.19-5.29.2-2.4.2-2.4l1.9-6s-.36-3.21-.6-5.39,2-6.08,1.5-8.58c-.27-1.43-.43-1.58-.51-1.45l5.1-21,2.69-12.37.84-1.3.55-.39.55.39.84,1.3,2.7,12.38,5.1,21c-.08-.13-.24,0-.51,1.45-.47,2.5,1.74,6.4,1.5,8.58l-.6,5.39,1.9,6s.07.84.2,2.4,4.19,5.29,4.19,5.29l3.29,13.68,3.69,20.87-.6,6.79-.5,10-2.69-.2-1,9.68,2.79.5-.2,3h-2.79l-.1,10.18,4.29,1.7,8.39,1,.3-1.69h4.29l.4-10.28-1.8-.5.8-1.5.4-9.18-2.1-8-.2-6.29-1.7-4.89,2-20.07,1.1-17.48.3-.8s-.82-7.79-.7-9.78-1.65-2.29-1.7-3.79.91-1.25-.1-3.1l-2.4-4.39-.4-3.6-.9-.6,1-4s3-23.16,2.9-28.95-3-13.6-3.49-19.06-2.4-20.16-2.4-20.16-2-11.48-2.59-16-1.5-15-1.5-15,5.15,12.71,4.8,13.18c-1.5,2,2.38,13.85,2.94,14.42l6.34,6.49.45.25s9.86,14.61,9.83,16.07,3,4.79,3,4.79l1.8,2.44-.5,1.15,3.94,5.34s1.07,5.08,1.4,5.39,3.7,4.35,4.59,5.19c3.59,3.38,3.09-.25,3.09-.25s4,2.26,4.59,2.45,1.75-.8,1.75-.8,1.58,1.72,2.4,1.65,2.38-2.79,2.4-4.29-6.89-8.32-6.39-8.93-.55-2.7-.55-2.7,5.72,1.95,6.94,1.65a1.13,1.13,0,0,0,.3-2.2c-1.15-.63-11-5.69-11-5.69v-.5s-.8.1-2.25-1a23.53,23.53,0,0,1-3.55-4.33s-1.35-3.47-1.95-3.84a1.24,1.24,0,0,0-1-.2l-2.84-4-5.09-13.48a2.45,2.45,0,0,0,.93-2c-.21-1.11-6.48-11.11-7.06-12.11s.2-1.89-.49-2.9-1.91-8.12-1.91-8.12l-1.2-5.54s-2.92-21.93-5.09-24.1-6.74-2.1-6.74-2.1-5.91-1.69-10.9-3.44c-1.48-1.14-3-2.22-4.51-3.35a3.2,3.2,0,0,1-.44-.4l-1.12-1.32c-.54-2.16-1.08-3.31-1.62-5.47a.88.88,0,0,1,.23-1c2-2.53,4.46-3.4,7-7.56.56-.92,2.08-2.87,2.57-3.84l1.25-1.45a3.43,3.43,0,0,0,.59-1.58c1-5.16,1.24-12.57-.25-17.6S286.91,26,282,24a23,23,0,0,0-8.74-1.35h.41A23,23,0,0,0,265,24c-4.86,2-8.32,6.61-9.81,11.65s-1.22,12.44-.25,17.6a3.43,3.43,0,0,0,.59,1.58l1.7,2.32c.36.67,1.73,2.32,2.12,3,2.5,4.16,3.94,5,6,7.56a.88.88,0,0,1,.23,1c-.54,2.16-.08,3.31-.62,5.47"/><path class="a" d="M111.5,54.87c.53-.23,1,.16,1.49-.46a3.43,3.43,0,0,0,.59-1.58c1-5.16,1.24-12.57-.25-17.6s-5-9.67-9.81-11.65a23,23,0,0,0-8.74-1.35h.41a23,23,0,0,0-8.74,1.35c-4.86,2-8.32,6.61-9.81,11.65s-1.22,12.44-.25,17.6A3.43,3.43,0,0,0,77,54.41c.5.61,1,.23,1.49.46s.53.53.76,1c.48,1,1,2.91,1.57,3.84,2,3.4,3.49,4.47,6,7.56a.88.88,0,0,1,.23,1c-.54,2.16-.08,3.31-.62,5.47-.49,1.95-2.13,2.8-3.87,3.57l-1.42,1.08C75.87,80.26,69,82.22,69,82.22s-4.57-.07-6.74,2.1-5.09,24.1-5.09,24.1L56,114s-1.22,7.12-1.91,8.13.1,1.9-.49,2.89-6.86,11-7.06,12.11a2.45,2.45,0,0,0,.93,2l-5.09,13.48-2.84,4a1.24,1.24,0,0,0-1,.2c-.6.37-1.95,3.84-1.95,3.84A23.54,23.54,0,0,1,33,165c-1.45,1.1-2.25,1-2.25,1v.5s-9.88,5.06-11,5.69a1.13,1.13,0,0,0,.3,2.2c1.21.3,6.94-1.65,6.94-1.65s-1.16,1.95-.55,2.7S20,182.87,20,184.37s1.58,4.23,2.4,4.29,2.4-1.65,2.4-1.65,1.11,1,1.75.8,4.59-2.45,4.59-2.45-.5,3.62,3.09.25c.9-.84,4.27-4.88,4.59-5.19s1.4-5.39,1.4-5.39l3.94-5.34-.5-1.15,1.8-2.44s3.08-3.33,3-4.79,9.83-16.07,9.83-16.07l.45-.25,6.34-6.49c.56-.57,4.44-12.46,2.94-14.42-.35-.46,4.6-14.58,4.6-14.58s-.71,11.89-1.31,16.38-2.6,16-2.6,16-1.91,14.7-2.4,20.16-3.4,13.27-3.49,19.06S65.75,207,65.75,207l1,7-.9.6-.4,3.6-2.4,4.39c-1,1.85-.05,1.59-.1,3.1s-1.82,1.8-1.7,3.79-.7,9.78-.7,9.78l.3.8L62,257.55l2,20.07-1.7,4.89-.2,6.29-2.1,8,.4,9.18.8,1.5-1.8.5.4,10.28h4.29l.3,1.69,8.38-1,4.29-1.7-.1-10.18h-2.8l-.2-3,2.79-.5-1-9.68-2.69.2-.5-10-.6-6.79,3.69-20.87,3.29-13.68S83,239,83.12,237.47s.2-2.4.2-2.4l1.9-6s-.36-3.21-.6-5.39,1.65-6,1.5-8.58a2.67,2.67,0,0,0-.51-1.45l5.1-21,2.69-12.37.84-1.3.55-.39.55.39.84,1.3,2.7,12.37,5.1,21c-.08-.13-.24,0-.51,1.45-.47,2.5,1.74,6.4,1.5,8.58l-.6,5.39,1.9,6s.07.84.2,2.4,4.19,5.29,4.19,5.29l3.29,13.68,3.69,20.87-.6,6.79-.5,10-2.69-.2-1,9.68,2.79.5-.2,3h-2.79l-.1,10.18,4.29,1.7,8.39,1,.3-1.69h4.29l.4-10.28-1.8-.5.8-1.5.4-9.18-2.1-8-.2-6.29-1.7-4.89,2-20.07,1.1-17.48.3-.8s-.82-7.79-.7-9.78-1.65-2.29-1.7-3.79.91-1.25-.1-3.1l-2.4-4.39-.4-3.6-.9-.6,1-7s3-20.16,2.9-25.95-3-13.6-3.49-19.06-2.4-20.16-2.4-20.16-2-11.48-2.59-16-1.5-15-1.5-15,5.15,12.71,4.8,13.18c-1.5,2,2.38,13.85,2.94,14.42L130.8,145l.45.25s9.86,14.61,9.83,16.07,3,4.79,3,4.79l1.8,2.44-.5,1.15,3.94,5.34s1.07,5.08,1.4,5.39,3.7,4.35,4.59,5.19c3.59,3.37,3.09-.25,3.09-.25s4,2.26,4.59,2.45,1.75-.8,1.75-.8,1.58,1.72,2.4,1.65,2.38-2.79,2.4-4.29-6.89-8.32-6.39-8.93-.55-2.7-.55-2.7,5.72,1.95,6.94,1.65a1.13,1.13,0,0,0,.3-2.2c-1.15-.63-11-5.69-11-5.69V166s-.8.1-2.25-1a23.53,23.53,0,0,1-3.55-4.33s-1.35-3.47-1.95-3.84a1.24,1.24,0,0,0-1-.2l-2.84-4-5.09-13.48a2.45,2.45,0,0,0,.93-2C142.84,136,136.57,126,136,125s.2-1.89-.49-2.89-1.91-8.12-1.91-8.12l-1.2-5.54s-2.92-21.93-5.09-24.1-6.74-2.1-6.74-2.1-5.91-1.69-10.9-3.44c-1.48-1.14-3-2.22-4.51-3.35a3.2,3.2,0,0,1-.44-.4l-1.12-1.32c-.54-2.16-.08-3.31-.62-5.47a.88.88,0,0,1,.23-1c2.47-3.09,3.92-4.15,6-7.56.56-.92,1.08-2.87,1.57-3.84.23-.47.3-.8.76-1"/><path class="b" d="M82.48,77.29l-1.42,1.08C75.87,80.26,69,82.22,69,82.22s-4.57-.07-6.74,2.1-5.09,24.1-5.09,24.1L56,114s-1.22,7.12-1.91,8.13.1,1.9-.49,2.89-6.86,11-7.06,12.11a2.45,2.45,0,0,0,.93,2h0l-5.09,13.48-2.84,4a1.24,1.24,0,0,0-1,.2c-.6.37-1.95,3.84-1.95,3.84A23.56,23.56,0,0,1,33,165c-1.45,1.1-2.25,1-2.25,1v.5s-9.88,5.06-11,5.69a1.13,1.13,0,0,0,.3,2.2c1.21.3,6.94-1.65,6.94-1.65s-1.16,1.95-.55,2.7S20,182.87,20,184.37s1.58,4.23,2.4,4.29,2.4-1.65,2.4-1.65,1.11,1,1.75.8,4.59-2.45,4.59-2.45-.5,3.62,3.09.25c.9-.84,4.27-4.88,4.59-5.19s1.4-5.39,1.4-5.39l3.94-5.34-.5-1.15,1.8-2.44s3.08-3.33,3-4.79,9.83-16.07,9.83-16.07h0l.45-.25,6.34-6.49c.56-.57,4.44-12.46,2.94-14.42-.35-.46,4.6-14.58,4.6-14.58s-.71,11.89-1.31,16.38-2.6,16-2.6,16-1.91,14.7-2.4,20.16-3.4,13.28-3.49,19.06,3,26.33,3,26.33l20.66,1.52,4.17-16.26,2.69-12.37.84-1.3.55-.39.55.39.84,1.3,2.7,12.37,4.08,16.26,20.74-1.52.9-6.88s2.23-13.64,2.13-19.43-3-13.6-3.49-19.06-2.4-20.16-2.4-20.16-2-11.48-2.59-16-1.5-15-1.5-15,5.15,12.71,4.8,13.18c-1.5,2,2.38,13.85,2.94,14.42L130.8,145l.45.25s9.86,14.61,9.83,16.07,3,4.79,3,4.79l1.8,2.44-.5,1.15,3.94,5.34s1.07,5.08,1.4,5.39,3.7,4.35,4.59,5.19c3.59,3.37,3.09-.25,3.09-.25s4,2.26,4.59,2.45,1.75-.8,1.75-.8,1.58,1.72,2.4,1.65,2.38-2.79,2.4-4.29-6.89-8.32-6.39-8.93-.55-2.7-.55-2.7,5.72,1.95,6.94,1.65a1.13,1.13,0,0,0,.3-2.2c-1.15-.63-11-5.69-11-5.69V166s-.8.1-2.25-1a23.56,23.56,0,0,1-3.55-4.33s-1.35-3.47-1.95-3.84a1.24,1.24,0,0,0-1-.2l-2.84-4-5.09-13.48a2.45,2.45,0,0,0,.93-2C142.84,136,136.57,126,136,125s.2-1.89-.49-2.89-1.91-8.12-1.91-8.12l-1.2-5.54s-2.92-21.93-5.09-24.1-6.74-2.1-6.74-2.1-5.91-1.69-10.9-3.44c0,0-2.75-2.23-4.87-3.69-.79-.54-.78.71-.78.71C101.44,82,99.64,85,94.49,85s-8.12-4-8.12-9.17l-.2-.59Z"/><path class="b" d="M258.43,79.39s-3.89,78.12-6.58,86c-5,14.62-7.68,32.45-7.68,32.45a36,36,0,0,1,.12,9.14H244s-2.71-19.73-2.62-25.51,3-13.6,3.49-19.06,2.4-20.16,2.4-20.16,2-11.48,2.59-16,1.31-16.38,1.31-16.38-5,14.12-4.61,14.59c1.5,2-2.38,13.85-2.94,14.42l-6.34,6.49-.45.25S227,160.29,227,161.75s-3,4.79-3,4.79l-1.8,2.44.5,1.15-3.94,5.34s-1.07,5.08-1.4,5.39-3.7,4.35-4.59,5.19c-3.59,3.37-3.09-.25-3.09-.25s-4,2.26-4.59,2.45-1.75-.8-1.75-.8-1.58,1.72-2.4,1.65-2.38-2.79-2.4-4.29,6.89-8.32,6.39-8.93.55-2.7.55-2.7-5.72,1.95-6.94,1.65a1.13,1.13,0,0,1-.3-2.2c1.15-.63,11-5.69,11-5.69v-.5s.8.1,2.25-1a23.56,23.56,0,0,0,3.55-4.33s1.35-3.47,1.95-3.84a1.24,1.24,0,0,1,1-.2l2.84-4L226,139.55a2.45,2.45,0,0,1-.93-2c.21-1.11,6.48-11.11,7.06-12.11s-.2-1.89.49-2.9,1.91-8.12,1.91-8.12l1.2-5.54s2.92-21.93,5.09-24.1,6.74-2.1,6.74-2.1l10.9-3.27"/><path class="b" d="M288.29,79.39s3.89,78.12,6.58,86c5,14.62,7.68,32.45,7.68,32.45a44.77,44.77,0,0,0,.21,9.15h0l.5-3.37s2.18-16.35,2.08-22.14-3-13.6-3.49-19.06-2.4-20.16-2.4-20.16-2-11.48-2.59-16-1.5-15-1.5-15,5.15,12.71,4.8,13.18c-1.5,2,2.38,13.85,2.94,14.42l6.34,6.49.45.25s9.86,14.6,9.83,16.07,3,4.79,3,4.79l1.8,2.44-.5,1.15,3.94,5.34s1.07,5.08,1.4,5.39,3.7,4.35,4.59,5.19c3.59,3.37,3.09-.25,3.09-.25s4,2.26,4.59,2.45,1.75-.8,1.75-.8,1.58,1.72,2.4,1.65,2.38-2.79,2.4-4.29-6.89-8.32-6.39-8.93-.55-2.7-.55-2.7,5.72,1.95,6.94,1.65a1.13,1.13,0,0,0,.3-2.2c-1.15-.63-11-5.69-11-5.69v-.5s-.8.1-2.25-1a23.57,23.57,0,0,1-3.55-4.33s-1.35-3.47-1.95-3.84a1.24,1.24,0,0,0-1-.2l-2.84-4-5.09-13.48a2.45,2.45,0,0,0,.93-2c-.21-1.11-6.48-11.11-7.06-12.11s.2-1.89-.49-2.89-1.91-8.12-1.91-8.12l-1.2-5.54s-2.92-21.93-5.09-24.1-6.74-2.1-6.74-2.1l-10.9-3.27"/><path class="c" d="M290.57,185.55A17,17,0,0,1,273.68,179H273a17,17,0,0,1-16.89,6.53"/><line class="d" x1="47.44" y1="139.11" x2="58.31" y2="145.25"/><line class="d" x1="123.54" y1="206.99" x2="123.36" y2="207"/><line class="d" x1="78.92" y1="242.76" x2="61.07" y2="242.17"/><line class="d" x1="85.59" y1="213.66" x2="66.75" y2="214.01"/><line class="d" x1="26.92" y1="172.74" x2="30.71" y2="166.5"/><line class="d" x1="26.37" y1="175.44" x2="38.8" y2="180.43"/><line class="d" x1="68.04" y1="124.08" x2="54.07" y2="122.09"/><path class="c" d="M78.77,235.21a4.85,4.85,0,0,1-5.35,4.31l-3.2-.35A4.86,4.86,0,0,1,66,233.78l.11-10.7a4.85,4.85,0,0,1,5.35-4.31l5.33.59A4.85,4.85,0,0,1,81,224.75Z"/><line class="d" x1="63.96" y1="277.61" x2="71.94" y2="277.61"/><line class="d" x1="142.12" y1="139.11" x2="131.25" y2="145.25"/><line class="d" x1="103.97" y1="213.66" x2="122.82" y2="214.01"/><line class="d" x1="162.65" y1="172.74" x2="158.85" y2="166.5"/><line class="d" x1="163.2" y1="175.44" x2="150.77" y2="180.43"/><line class="d" x1="121.52" y1="124.08" x2="135.5" y2="122.09"/><path class="c" d="M110.8,235.21a4.85,4.85,0,0,0,5.35,4.31l3.2-.35a4.86,4.86,0,0,0,4.27-5.38l-.11-10.7a4.85,4.85,0,0,0-5.35-4.31l-5.33.59a4.85,4.85,0,0,0-4.27,5.38Z"/><line class="d" x1="125.61" y1="277.61" x2="117.62" y2="277.61"/><path class="c" d="M240.43,128.06c2.06,1.43,3.44,3,1,6.57s-6.13,5.3-8.2,3.87-1.73-4.47.73-8S238.37,126.63,240.43,128.06Z"/><path class="c" d="M306.4,129.34c-2.06,1.43-3.44,3-1,6.57s6.13,5.3,8.2,3.87,1.73-4.47-.73-8S308.46,127.91,306.4,129.34Z"/><line class="d" x1="226.06" y1="139.55" x2="236.93" y2="145.68"/><line class="d" x1="302.15" y1="210.43" x2="301.97" y2="210.44"/><line class="d" x1="257.54" y1="243.2" x2="239.68" y2="242.61"/><line class="d" x1="264.21" y1="214.1" x2="245.36" y2="214.45"/><line class="d" x1="205.54" y1="173.18" x2="209.33" y2="166.94"/><line class="d" x1="204.99" y1="175.87" x2="217.42" y2="180.87"/><line class="d" x1="246.66" y1="124.52" x2="232.68" y2="122.52"/><line class="d" x1="242.57" y1="278.05" x2="250.56" y2="278.05"/><line class="d" x1="320.74" y1="139.55" x2="309.87" y2="145.68"/><line class="d" x1="282.59" y1="214.1" x2="301.44" y2="214.45"/><line class="d" x1="341.26" y1="173.18" x2="337.47" y2="166.94"/><line class="d" x1="341.81" y1="175.87" x2="329.38" y2="180.87"/><line class="d" x1="300.14" y1="124.52" x2="314.11" y2="122.52"/><line class="d" x1="304.23" y1="278.05" x2="296.24" y2="278.05"/><line class="d" x1="110.64" y1="242.76" x2="128.5" y2="242.17"/><line class="d" x1="150.14" y1="156.63" x2="141.09" y2="161.32"/><line class="d" x1="218.04" y1="157.06" x2="227.1" y2="161.75"/><line class="d" x1="289.26" y1="243.2" x2="307.12" y2="242.61"/><line class="d" x1="328.76" y1="157.06" x2="319.7" y2="161.75"/><line class="d" x1="39.42" y1="156.63" x2="48.48" y2="161.32"/><path class="c" d="M290.27,56.29a14.82,14.82,0,0,1-4.17,2.38c-3.74,1.52-6.57-.23-9.58-.21h-7.44c-3,0-4.84,1.73-8.58.21a17.05,17.05,0,0,1-3.31-1.51"/><path class="c" d="M111.07,55.27c1.56-5.08.84-4.83-.58-9.93a33.2,33.2,0,0,0-.79-4.44c-.46-1.77-.14-3.48-1.12-3.87-3.74-1.52-7.57.23-10.58.21H92c-3,0-6.84-1.73-10.58-.21-1,.4-.66,2.11-1.12,3.87a33.2,33.2,0,0,0-.79,4.44c-1.42,5.1-2.14,4.86-.58,9.93"/><path class="e" d="M264.88,74.15c-.49,1.95-2.13,2.8-3.87,3.57l-1.42,1.08c-5.19,1.89-12.06,3.85-12.06,3.85s-4.57-.07-6.74,2.1-5.09,24.1-5.09,24.1l-1.2,5.54s-1.22,7.12-1.91,8.13.1,1.9-.49,2.9-6.86,11-7.06,12.11a2.45,2.45,0,0,0,.93,2L220.88,153l-2.84,4a1.24,1.24,0,0,0-1,.2c-.6.37-1.95,3.84-1.95,3.84a23.54,23.54,0,0,1-3.55,4.33c-1.45,1.1-2.25,1-2.25,1v.5s-9.88,5.06-11,5.69a1.13,1.13,0,0,0,.3,2.2c1.21.3,6.94-1.65,6.94-1.65s-1.16,1.95-.55,2.7-6.4,7.44-6.39,8.93,1.58,4.23,2.4,4.29,2.4-1.65,2.4-1.65,1.11,1,1.75.8,4.59-2.45,4.59-2.45-.5,3.62,3.09.25c.9-.84,4.27-4.88,4.59-5.19s1.4-5.39,1.4-5.39l3.94-5.34-.5-1.15,1.8-2.44s3.08-3.33,3-4.79,9.83-16.07,9.83-16.07l.45-.25,6.34-6.49c.56-.57,4.44-12.46,2.94-14.42-.35-.46,4.6-14.58,4.6-14.58s-.71,11.89-1.31,16.38-2.6,16-2.6,16-1.91,14.7-2.4,20.16-3.4,13.27-3.49,19.06,2.9,28.95,2.9,28.95l1,4-.9.6-.4,3.6-2.4,4.39c-1,1.85-.05,1.59-.1,3.1s-1.82,1.8-1.7,3.79-.7,9.78-.7,9.78l.3.8L240.5,258l2,20.07-1.7,4.89-.2,6.29-2.1,8,.4,9.18.8,1.5-1.8.5.4,10.28h4.29l.3,1.69,8.38-1,4.29-1.7-.1-10.18h-2.8l-.2-3,2.79-.5-1-9.68-2.69.2-.5-10-.6-6.79,3.69-20.87,3.29-13.68s4.07-3.74,4.19-5.29.2-2.4.2-2.4l1.9-6s-.36-3.21-.6-5.39,2-6.08,1.5-8.58c-.27-1.43-.43-1.58-.51-1.45l5.1-21,2.69-12.37.84-1.3.55-.39.55.39.84,1.3,2.7,12.38,5.1,21c-.08-.13-.24,0-.51,1.45-.47,2.5,1.74,6.4,1.5,8.58l-.6,5.39,1.9,6s.07.84.2,2.4,4.19,5.29,4.19,5.29l3.29,13.68,3.69,20.87-.6,6.79-.5,10-2.69-.2-1,9.68,2.79.5-.2,3h-2.79l-.1,10.18,4.29,1.7,8.39,1,.3-1.69h4.29l.4-10.28-1.8-.5.8-1.5.4-9.18-2.1-8-.2-6.29-1.7-4.89,2-20.07,1.1-17.48.3-.8s-.82-7.79-.7-9.78-1.65-2.29-1.7-3.79.91-1.25-.1-3.1l-2.4-4.39-.4-3.6-.9-.6,1-4s3-23.16,2.9-28.95-3-13.6-3.49-19.06-2.4-20.16-2.4-20.16-2-11.48-2.59-16-1.5-15-1.5-15,5.15,12.71,4.8,13.18c-1.5,2,2.38,13.85,2.94,14.42l6.34,6.49.45.25s9.86,14.61,9.83,16.07,3,4.79,3,4.79l1.8,2.44-.5,1.15,3.94,5.34s1.07,5.08,1.4,5.39,3.7,4.35,4.59,5.19c3.59,3.38,3.09-.25,3.09-.25s4,2.26,4.59,2.45,1.75-.8,1.75-.8,1.58,1.72,2.4,1.65,2.38-2.79,2.4-4.29-6.89-8.32-6.39-8.93-.55-2.7-.55-2.7,5.72,1.95,6.94,1.65a1.13,1.13,0,0,0,.3-2.2c-1.15-.63-11-5.69-11-5.69v-.5s-.8.1-2.25-1a23.53,23.53,0,0,1-3.55-4.33s-1.35-3.47-1.95-3.84a1.24,1.24,0,0,0-1-.2l-2.84-4-5.09-13.48a2.45,2.45,0,0,0,.93-2c-.21-1.11-6.48-11.11-7.06-12.11s.2-1.89-.49-2.9-1.91-8.12-1.91-8.12l-1.2-5.54s-2.92-21.93-5.09-24.1-6.74-2.1-6.74-2.1-5.91-1.69-10.9-3.44c-1.48-1.14-3-2.22-4.51-3.35a3.2,3.2,0,0,1-.44-.4l-1.12-1.32c-.54-2.16-1.08-3.31-1.62-5.47a.88.88,0,0,1,.23-1c2-2.53,4.46-3.4,7-7.56.56-.92,2.08-2.87,2.57-3.84l1.25-1.45a3.43,3.43,0,0,0,.59-1.58c1-5.16,1.24-12.57-.25-17.6S286.91,26,282,24a23,23,0,0,0-8.74-1.35h.41A23,23,0,0,0,265,24c-4.86,2-8.32,6.61-9.81,11.65s-1.22,12.44-.25,17.6a3.43,3.43,0,0,0,.59,1.58l1.7,2.32c.36.67,1.73,2.32,2.12,3,2.5,4.16,3.94,5,6,7.56a.88.88,0,0,1,.23,1c-.54,2.16-.08,3.31-.62,5.47"/><path class="e" d="M111.5,54.87c.53-.23,1,.16,1.49-.46a3.43,3.43,0,0,0,.59-1.58c1-5.16,1.24-12.57-.25-17.6s-5-9.67-9.81-11.65a23,23,0,0,0-8.74-1.35h.41a23,23,0,0,0-8.74,1.35c-4.86,2-8.32,6.61-9.81,11.65s-1.22,12.44-.25,17.6A3.43,3.43,0,0,0,77,54.41c.5.61,1,.23,1.49.46s.53.53.76,1c.48,1,1,2.91,1.57,3.84,2,3.4,3.49,4.47,6,7.56a.88.88,0,0,1,.23,1c-.54,2.16-.08,3.31-.62,5.47-.49,1.95-2.13,2.8-3.87,3.57l-1.42,1.08C75.87,80.26,69,82.22,69,82.22s-4.57-.07-6.74,2.1-5.09,24.1-5.09,24.1L56,114s-1.22,7.12-1.91,8.13.1,1.9-.49,2.89-6.86,11-7.06,12.11a2.45,2.45,0,0,0,.93,2l-5.09,13.48-2.84,4a1.24,1.24,0,0,0-1,.2c-.6.37-1.95,3.84-1.95,3.84A23.54,23.54,0,0,1,33,165c-1.45,1.1-2.25,1-2.25,1v.5s-9.88,5.06-11,5.69a1.13,1.13,0,0,0,.3,2.2c1.21.3,6.94-1.65,6.94-1.65s-1.16,1.95-.55,2.7S20,182.87,20,184.37s1.58,4.23,2.4,4.29,2.4-1.65,2.4-1.65,1.11,1,1.75.8,4.59-2.45,4.59-2.45-.5,3.62,3.09.25c.9-.84,4.27-4.88,4.59-5.19s1.4-5.39,1.4-5.39l3.94-5.34-.5-1.15,1.8-2.44s3.08-3.33,3-4.79,9.83-16.07,9.83-16.07l.45-.25,6.34-6.49c.56-.57,4.44-12.46,2.94-14.42-.35-.46,4.6-14.58,4.6-14.58s-.71,11.89-1.31,16.38-2.6,16-2.6,16-1.91,14.7-2.4,20.16-3.4,13.27-3.49,19.06S65.75,207,65.75,207l1,7-.9.6-.4,3.6-2.4,4.39c-1,1.85-.05,1.59-.1,3.1s-1.82,1.8-1.7,3.79-.7,9.78-.7,9.78l.3.8L62,257.55l2,20.07-1.7,4.89-.2,6.29-2.1,8,.4,9.18.8,1.5-1.8.5.4,10.28h4.29l.3,1.69,8.38-1,4.29-1.7-.1-10.18h-2.8l-.2-3,2.79-.5-1-9.68-2.69.2-.5-10-.6-6.79,3.69-20.87,3.29-13.68S83,239,83.12,237.47s.2-2.4.2-2.4l1.9-6s-.36-3.21-.6-5.39,1.65-6,1.5-8.58a2.67,2.67,0,0,0-.51-1.45l5.1-21,2.69-12.37.84-1.3.55-.39.55.39.84,1.3,2.7,12.37,5.1,21c-.08-.13-.24,0-.51,1.45-.47,2.5,1.74,6.4,1.5,8.58l-.6,5.39,1.9,6s.07.84.2,2.4,4.19,5.29,4.19,5.29l3.29,13.68,3.69,20.87-.6,6.79-.5,10-2.69-.2-1,9.68,2.79.5-.2,3h-2.79l-.1,10.18,4.29,1.7,8.39,1,.3-1.69h4.29l.4-10.28-1.8-.5.8-1.5.4-9.18-2.1-8-.2-6.29-1.7-4.89,2-20.07,1.1-17.48.3-.8s-.82-7.79-.7-9.78-1.65-2.29-1.7-3.79.91-1.25-.1-3.1l-2.4-4.39-.4-3.6-.9-.6,1-7s3-20.16,2.9-25.95-3-13.6-3.49-19.06-2.4-20.16-2.4-20.16-2-11.48-2.59-16-1.5-15-1.5-15,5.15,12.71,4.8,13.18c-1.5,2,2.38,13.85,2.94,14.42L130.8,145l.45.25s9.86,14.61,9.83,16.07,3,4.79,3,4.79l1.8,2.44-.5,1.15,3.94,5.34s1.07,5.08,1.4,5.39,3.7,4.35,4.59,5.19c3.59,3.37,3.09-.25,3.09-.25s4,2.26,4.59,2.45,1.75-.8,1.75-.8,1.58,1.72,2.4,1.65,2.38-2.79,2.4-4.29-6.89-8.32-6.39-8.93-.55-2.7-.55-2.7,5.72,1.95,6.94,1.65a1.13,1.13,0,0,0,.3-2.2c-1.15-.63-11-5.69-11-5.69V166s-.8.1-2.25-1a23.53,23.53,0,0,1-3.55-4.33s-1.35-3.47-1.95-3.84a1.24,1.24,0,0,0-1-.2l-2.84-4-5.09-13.48a2.45,2.45,0,0,0,.93-2C142.84,136,136.57,126,136,125s.2-1.89-.49-2.89-1.91-8.12-1.91-8.12l-1.2-5.54s-2.92-21.93-5.09-24.1-6.74-2.1-6.74-2.1-5.91-1.69-10.9-3.44c-1.48-1.14-3-2.22-4.51-3.35a3.2,3.2,0,0,1-.44-.4l-1.12-1.32c-.54-2.16-.08-3.31-.62-5.47a.88.88,0,0,1,.23-1c2.47-3.09,3.92-4.15,6-7.56.56-.92,1.08-2.87,1.57-3.84.23-.47.3-.8.76-1"/></svg>