<?xml version="1.0" encoding="UTF-8"?>
<!-- Generator: Adobe Illustrator 21.1.0, SVG Export Plug-In . SVG Version: 6.00 Build 0)  -->
<svg version="1.1" xmlns="http://www.w3.org/2000/svg" xmlns:xlink="http://www.w3.org/1999/xlink" x="0px" y="0px" viewBox="0 0 816 576" style="enable-background:new 0 0 816 576;" xml:space="preserve">
<style type="text/css">
	.st0{fill:#F1EFEE;}
	.st1{fill:#C6C7C9;}
	.st2{fill:none;stroke:#000000;stroke-width:0.625;stroke-dasharray:3,2;}
	.st3{fill:none;stroke:#C6C7C9;stroke-width:0.625;stroke-dasharray:4;}
	.st4{font-family:'Avenir-Roman';}
	.st5{font-size:10px;}
	.st6{fill:none;stroke:#C6C7C9;stroke-width:0.625;stroke-dasharray:2,2;}
	.st7{fill:none;stroke:#000000;stroke-width:0.625;stroke-dasharray:3,1.75;}
	.st8{fill:none;}
	.st9{fill:#8C3F4A;stroke:#221F1F;stroke-width:0.125;}
	.st10{clip-path:url(#SVGID_2_);fill:none;stroke:#221F1F;stroke-width:20;stroke-dasharray:1,1;}
	.st11{fill:#FFFFFF;stroke:#221F1F;stroke-width:0.625;}
	.st12{fill:#C4C6C8;}
	.st13{fill:#E42B27;stroke:#221F1F;stroke-width:0.625;}
	.st14{fill:#FFFFFF;}
	.st15{fill:#221F1F;}
	.st16{fill:#76353C;stroke:#000000;stroke-width:0.625;}
	.st17{fill:url(#);stroke:#000000;stroke-width:0.6;stroke-linecap:round;}
	.st18{fill:none;stroke:#000000;stroke-width:0.6;}
	.st19{fill:#FFFFFF;stroke:#000000;stroke-width:0.625;}
	.st20{fill:none;stroke:#221F1F;stroke-width:0.125;}
</style>
<g id="Layer_1">
	<path class="st0" d="M267.3,88.5c26.2-1.6,167.5-10.1,246.3-13.6l0.8,118.9H267.3V88.5z M670.3,483.5   c-54.5,28.4-109.8,32.8-110.3,32.8l-297.1,17.6c-75,0-132.1-21.3-169.8-63.3c-30.9-34.4-42.7-76.5-47.2-105.9   c-4.9-31.9-2.4-56-2.4-56.2l0-0.3c0-84,36.9-146.4,109.6-185.6c50.9-27.4,102.5-33.2,109.3-33.9v105c-3.6,0.4-29.3,3.4-55.2,17.2   c-25.4,13.6-55.2,40.5-53.5,91.5c1.7,50.9,31.4,77.8,55.9,91.3c26.4,14.6,52,17.2,53.1,17.3l295.3,0l0.1,0   c1.1-0.1,27-2.1,53.4-16.3c24.6-13.2,54-39.7,54.6-91.3c0.6-51.5-28.3-78.7-52.6-92.4c-26.2-14.7-52-17.3-53.1-17.4l-0.1,0h-40.7   l-0.8-119.2c18.7-0.8,33.4-1.3,41.5-1.3c22.2,0,77.3,8.8,126.7,41.9c61.8,41.5,93.1,105.1,93.1,188.9   C779.9,385.3,743,445.6,670.3,483.5z"/>
	<polygon class="st1" points="346,152.8 345.6,124.5 350.6,124.5 351,152.7  "/>
	<polygon class="st1" points="429.8,150.8 429.6,121.3 434.6,121.2 434.8,150.8  "/>
	<polygon class="st1" points="604.2,158.1 599.4,156.6 609,125.7 613.8,127.2  "/>
	<polygon class="st1" points="674.9,205.4 671.6,201.6 695.2,181.2 698.5,185  "/>
	<polygon class="st1" points="707.7,284.1 706.9,279.2 737,274.4 737.8,279.3  "/>
	<polygon class="st1" points="721,379.8 693.6,367.7 695.6,363.1 723,375.3  "/>
	<polygon class="st1" points="650.6,452.2 634.3,428.6 638.4,425.8 654.7,449.4  "/>
	<polygon class="st1" points="559.5,476.2 554.5,476.2 554.5,449.3 559.5,449.3  "/>
	<polygon class="st1" points="477.8,479.5 472.8,479.5 472.8,451.2 477.8,451.2  "/>
	<polygon class="st1" points="392.9,483.9 387.9,483.9 387.9,453.9 392.9,453.9  "/>
	<polygon class="st1" points="308.2,487 303.2,487 303.2,455.7 308.2,455.7  "/>
	<polygon class="st1" points="213.8,483.8 209,482.3 218.2,450.9 223,452.3  "/>
	<polygon class="st1" points="122.9,452.6 119.5,449 144.6,426 148,429.7  "/>
	<polygon class="st1" points="85.4,354.8 84.6,349.9 114.5,345.1 115.3,350.1  "/>
	<polygon class="st1" points="123.1,267.8 97.6,254.9 99.8,250.5 125.3,263.3  "/>
	<polygon class="st1" points="183.5,181.4 168.9,158.2 173.1,155.5 187.7,178.7  "/>
	<path class="st1" d="M756.2,182.9c-15.9-28.6-38.3-52.7-66.6-71.8c-50.4-33.9-106.7-42.8-129.5-42.8c-44.7,0-294.8,15.3-297.3,15.4   c-0.6,0-56.7,4.6-112,34.4c-32.6,17.5-58.6,40.3-77.2,67.5c-23.3,34-35.1,75.2-35.1,122.5c-0.2,2.2-2.4,25.6,2.4,57.2   c4.6,30,16.7,73.3,48.5,108.6c38.7,43.1,97.1,64.9,173.6,64.9h0.1l297.3-17.6c0.6,0,56.7-4.5,112.1-33.3   c32.6-17,58.6-38.9,77.3-65.3c23.4-33,35.2-72.8,35.2-118.6C784.9,258,775.3,217.2,756.2,182.9z M267.3,88.5   c26.2-1.6,167.5-10.1,246.3-13.6l0.8,118.9H267.3V88.5z M263.1,198.8H560c1.9,0.2,26.8,3.1,51.2,16.9c33.6,19,50.3,48.5,49.9,87.9   c-0.4,39.4-17.9,68.6-51.8,86.8c-24.8,13.3-49.8,15.7-51.5,15.8H263.1c-1.8-0.2-26.4-3.1-51.1-16.7c-34-18.8-52-48.1-53.3-87.1   c-1.3-38.9,15.7-68.1,50.7-86.9C234.9,201.9,261.2,199,263.1,198.8z M670.3,483.5c-54.5,28.4-109.8,32.8-110.3,32.8l-297.1,17.6   c-75,0-132.1-21.3-169.8-63.3c-30.9-34.4-42.7-76.5-47.2-105.9c-4.9-31.9-2.4-56-2.4-56.2l0-0.3c0-84,36.9-146.4,109.6-185.6   c50.9-27.4,102.5-33.2,109.3-33.9v105c-3.6,0.4-29.3,3.4-55.2,17.2c-25.4,13.6-55.2,40.5-53.5,91.5c1.7,50.9,31.4,77.8,55.9,91.3   c26.4,14.6,52,17.2,53.1,17.3l295.3,0l0.1,0c1.1-0.1,27-2.1,53.4-16.3c24.6-13.2,54-39.7,54.6-91.3c0.6-51.5-28.3-78.7-52.6-92.4   c-26.2-14.7-52-17.3-53.1-17.4l-0.1,0h-40.7l-0.8-119.2c18.7-0.8,33.4-1.3,41.5-1.3c22.2,0,77.3,8.8,126.7,41.9   c61.8,41.5,93.1,105.1,93.1,188.9C779.9,385.3,743,445.6,670.3,483.5z"/>
	<path class="st1" d="M756.2,182.9c-15.9-28.6-38.3-52.7-66.6-71.8c-50.4-33.9-106.7-42.8-129.5-42.8c-44.7,0-294.8,15.3-297.3,15.4   c-0.6,0-56.7,4.6-112,34.4c-32.6,17.5-58.6,40.3-77.2,67.5c-23.3,34-35.1,75.2-35.1,122.5c-0.2,2.2-2.4,25.6,2.4,57.2   c4.6,30,16.7,73.3,48.5,108.6c38.7,43.1,97.1,64.9,173.6,64.9h0.1l297.3-17.6c0.6,0,56.7-4.5,112.1-33.3   c32.6-17,58.6-38.9,77.3-65.3c23.4-33,35.2-72.8,35.2-118.6C784.9,258,775.3,217.2,756.2,182.9z M267.3,88.5   c26.2-1.6,167.5-10.1,246.3-13.6l0.8,118.9H267.3V88.5z M263.1,198.8H560c1.9,0.2,26.8,3.1,51.2,16.9c33.6,19,50.3,48.5,49.9,87.9   c-0.4,39.4-17.9,68.6-51.8,86.8c-24.8,13.3-49.8,15.7-51.5,15.8H263.1c-1.8-0.2-26.4-3.1-51.1-16.7c-34-18.8-52-48.1-53.3-87.1   c-1.3-38.9,15.7-68.1,50.7-86.9C234.9,201.9,261.2,199,263.1,198.8z M670.3,483.5c-54.5,28.4-109.8,32.8-110.3,32.8l-297.1,17.6   c-75,0-132.1-21.3-169.8-63.3c-30.9-34.4-42.7-76.5-47.2-105.9c-4.9-31.9-2.4-56-2.4-56.2l0-0.3c0-84,36.9-146.4,109.6-185.6   c50.9-27.4,102.5-33.2,109.3-33.9v105c-3.6,0.4-29.3,3.4-55.2,17.2c-25.4,13.6-55.2,40.5-53.5,91.5c1.7,50.9,31.4,77.8,55.9,91.3   c26.4,14.6,52,17.2,53.1,17.3l295.3,0l0.1,0c1.1-0.1,27-2.1,53.4-16.3c24.6-13.2,54-39.7,54.6-91.3c0.6-51.5-28.3-78.7-52.6-92.4   c-26.2-14.7-52-17.3-53.1-17.4l-0.1,0h-40.7l-0.8-119.2c18.7-0.8,33.4-1.3,41.5-1.3c22.2,0,77.3,8.8,126.7,41.9   c61.8,41.5,93.1,105.1,93.1,188.9C779.9,385.3,743,445.6,670.3,483.5z"/>
	<path class="st1" d="M756.2,182.9c-15.9-28.6-38.3-52.7-66.6-71.8c-50.4-33.9-106.7-42.8-129.5-42.8c-44.7,0-294.8,15.3-297.3,15.4   c-0.6,0-56.7,4.6-112,34.4c-32.6,17.5-58.6,40.3-77.2,67.5c-23.3,34-35.1,75.2-35.1,122.5c-0.2,2.2-2.4,25.6,2.4,57.2   c4.6,30,16.7,73.3,48.5,108.6c38.7,43.1,97.1,64.9,173.6,64.9h0.1l297.3-17.6c0.6,0,56.7-4.5,112.1-33.3   c32.6-17,58.6-38.9,77.3-65.3c23.4-33,35.2-72.8,35.2-118.6C784.9,258,775.3,217.2,756.2,182.9z M267.3,88.5   c26.2-1.6,167.5-10.1,246.3-13.6l0.8,118.9H267.3V88.5z M263.1,198.8H560c1.9,0.2,26.8,3.1,51.2,16.9c33.6,19,50.3,48.5,49.9,87.9   c-0.4,39.4-17.9,68.6-51.8,86.8c-24.8,13.3-49.8,15.7-51.5,15.8H263.1c-1.8-0.2-26.4-3.1-51.1-16.7c-34-18.8-52-48.1-53.3-87.1   c-1.3-38.9,15.7-68.1,50.7-86.9C234.9,201.9,261.2,199,263.1,198.8z M670.3,483.5c-54.5,28.4-109.8,32.8-110.3,32.8l-297.1,17.6   c-75,0-132.1-21.3-169.8-63.3c-30.9-34.4-42.7-76.5-47.2-105.9c-4.9-31.9-2.4-56-2.4-56.2l0-0.3c0-84,36.9-146.4,109.6-185.6   c50.9-27.4,102.5-33.2,109.3-33.9v105c-3.6,0.4-29.3,3.4-55.2,17.2c-25.4,13.6-55.2,40.5-53.5,91.5c1.7,50.9,31.4,77.8,55.9,91.3   c26.4,14.6,52,17.2,53.1,17.3l295.3,0l0.1,0c1.1-0.1,27-2.1,53.4-16.3c24.6-13.2,54-39.7,54.6-91.3c0.6-51.5-28.3-78.7-52.6-92.4   c-26.2-14.7-52-17.3-53.1-17.4l-0.1,0h-40.7l-0.8-119.2c18.7-0.8,33.4-1.3,41.5-1.3c22.2,0,77.3,8.8,126.7,41.9   c61.8,41.5,93.1,105.1,93.1,188.9C779.9,385.3,743,445.6,670.3,483.5z"/>
	<g>
		<g>
			<line class="st2" x1="348.9" y1="142.5" x2="431.7" y2="142.5"/>
			<g>
				<rect x="348.6" y="140.5" width="0.6" height="4.1"/>
			</g>
			<g>
				<rect x="431.4" y="140.5" width="0.6" height="4.1"/>
			</g>
		</g>
	</g>
	<g>
		<g>
			<line class="st2" x1="262.5" y1="178.7" x2="514.6" y2="178.7"/>
			<g>
				<rect x="262.2" y="176.6" width="0.6" height="4.1"/>
			</g>
			<g>
				<rect x="514.3" y="176.6" width="0.6" height="4.1"/>
			</g>
		</g>
	</g>
	<text transform="matrix(1 0 0 1 361.0115 137.1338)" class="st4 st5">10’  (3.05 m) </text>
	<g>
		<text transform="matrix(1 0 0 1 359.2691 174.4922)" class="st4 st5">30’  (9.15 m) </text>
	</g>
	<text transform="matrix(0 -1 1 0 546.344 491.7109)" class="st4 st5">13’ (3.96 m) </text>
	<g>
		<text transform="matrix(0 -1 1 0 263.2812 501.4717)" class="st4 st5">15 ' (4.57 m) </text>
	</g>
	<g>
		<g>
			<line class="st2" x1="267.4" y1="538.1" x2="267.4" y2="406.3"/>
			<g>
				<rect x="265.4" y="537.8" width="4.1" height="0.6"/>
			</g>
			<g>
				<rect x="265.4" y="406" width="4.1" height="0.6"/>
			</g>
		</g>
	</g>
	<g>
		<g>
			<line class="st7" x1="549.8" y1="406.2" x2="549.8" y2="521.7"/>
			<g>
				<rect x="547.7" y="405.9" width="4.1" height="0.6"/>
			</g>
			<g>
				<rect x="547.7" y="521.3" width="4.1" height="0.6"/>
			</g>
		</g>
	</g>
</g>
<g id="track_is_here">
</g>
<g id="track_hatch">
</g>
<g id="players">
</g>
</svg>